<svg width="45" height="45" viewBox="0 0 45 45" xmlns="http://www.w3.org/2000/svg">
  <!-- Body -->
  <path d="M22.5 2 L28 15 L40 25 L40 30 L28 35 L22.5 42 L17 35 L5 30 L5 25 L17 15 Z" fill="#475569" stroke="#1e293b" stroke-width="2"/>
  
  <!-- Wings -->
  <path d="M5 25 L12 25 L12 35 L5 40 Z" fill="#334155"/>
  <path d="M40 25 L33 25 L33 35 L40 40 Z" fill="#334155"/>
  
  <!-- Cockpit -->
  <ellipse cx="22.5" cy="20" rx="4" ry="7" fill="#0ea5e9" stroke="#7dd3fc" stroke-width="1"/>
  
  <!-- Engine Glows -->
  <path d="M15 38 L12 45 L18 45 Z" fill="#60a5fa" opacity="0.8"/>
  <path d="M30 38 L27 45 L33 45 Z" fill="#60a5fa" opacity="0.8"/>
  
  <!-- Details -->
  <rect x="21.5" y="5" width="2" height="10" fill="#94a3b8" opacity="0.5"/>
  <rect x="10" y="28" width="5" height="2" fill="#0ea5e9"/>
  <rect x="30" y="28" width="5" height="2" fill="#0ea5e9"/>
</svg>
